<?xml version="1.0" standalone="no"?>
<!DOCTYPE svg PUBLIC "-//W3C//DTD SVG 20010904//EN"
 "http://www.w3.org/TR/2001/REC-SVG-20010904/DTD/svg10.dtd">
<svg version="1.0" xmlns="http://www.w3.org/2000/svg"
 width="500.000000pt" height="500.000000pt" viewBox="0 0 500.000000 500.000000"
 preserveAspectRatio="xMidYMid meet">
<metadata>
Created by potrace 1.14, written by Peter Selinger 2001-2017
</metadata>
<g transform="translate(0.000000,500.000000) scale(0.100000,-0.100000)"
fill="#000000" stroke="none">
<path d="M2215 4985 c-139 -19 -295 -50 -395 -80 -47 -14 -92 -27 -100 -30
-124 -32 -350 -137 -522 -241 -267 -162 -563 -435 -719 -664 -24 -36 -46 -67
-49 -70 -23 -20 -104 -161 -170 -295 -69 -139 -168 -399 -184 -485 -2 -14 -11
-54 -20 -90 -8 -36 -17 -83 -21 -105 -3 -23 -7 -51 -10 -64 -26 -138 -27 -633
0 -713 2 -7 6 -32 9 -55 24 -190 116 -476 223 -692 133 -268 273 -462 487
-676 285 -284 641 -499 1011 -610 50 -15 97 -29 105 -32 19 -7 20 -8 110 -26
192 -40 298 -51 505 -52 196 0 301 6 407 25 29 5 69 11 88 14 230 35 571 166
820 315 309 186 594 458 786 751 27 41 51 77 54 80 3 3 12 19 20 35 8 17 18
32 21 35 11 10 88 167 144 293 52 120 136 418 151 542 3 22 7 46 9 53 26 78
26 579 1 699 -2 11 -7 43 -11 70 -9 69 -75 336 -86 348 -5 5 -9 16 -9 25 0 24
-81 223 -135 329 -193 385 -497 727 -860 968 -291 193 -672 341 -988 383 -45
6 -93 13 -107 16 -57 13 -468 11 -565 -1z"/>
</g>
</svg>
